<svg width="8" height="16" xmlns="http://www.w3.org/2000/svg" xmlns:xlink="http://www.w3.org/1999/xlink" xmlns:svgjs="http://svgjs.com/svgjs" viewBox="0 0.602 8 14.796" fill="#fff"><svg xmlns="http://www.w3.org/2000/svg" width="8" height="16" viewBox="0.123 0.982 7.779 14.387"><path paint-order="stroke fill markers" fill-rule="evenodd" d="M7.61.984L5.742.982c-2.096 0-3.45 1.39-3.45 3.54v1.633H.417a.293.293 0 0 0-.294.293v2.365c0 .162.132.293.294.293h1.876v5.969c0 .162.131.293.293.293h2.448a.293.293 0 0 0 .293-.293V9.106H7.52a.293.293 0 0 0 .294-.293V6.448a.295.295 0 0 0-.293-.293H5.327V4.77c0-.664.158-1.002 1.025-1.002H7.61a.294.294 0 0 0 .293-.294V1.278A.294.294 0 0 0 7.61.984z"/></svg></svg>