<svg width="23" height="15" xmlns="http://www.w3.org/2000/svg" xmlns:xlink="http://www.w3.org/1999/xlink" xmlns:svgjs="http://svgjs.com/svgjs" viewBox="503 9996 23 15"><svg width="8" height="8" xmlns="http://www.w3.org/2000/svg" xmlns:xlink="http://www.w3.org/1999/xlink" xmlns:svgjs="http://svgjs.com/svgjs" fill="#fff" x="518" y="9999"><svg xmlns="http://www.w3.org/2000/svg" xmlns:xlink="http://www.w3.org/1999/xlink" width="8" height="8" viewBox="0.178 0.741 7.021 7.021"><path paint-order="stroke fill markers" fill-rule="evenodd" d="M4.39 3.55V.74H2.988v2.808H.178v1.405h2.809v2.808H4.39V4.954h2.808V3.549H4.391z"/></svg></svg><svg width="15" height="15" xmlns="http://www.w3.org/2000/svg" xmlns:xlink="http://www.w3.org/1999/xlink" xmlns:svgjs="http://svgjs.com/svgjs" viewBox="0 0.089 15 14.822" fill="#fff" x="503" y="9996"><svg xmlns="http://www.w3.org/2000/svg" width="15" height="15" viewBox="0 0.999 14.042 13.875"><path paint-order="stroke fill markers" fill-rule="evenodd" d="M7.02 6.55v2.774h3.973A4.218 4.218 0 0 1 7.021 12.1c-2.323 0-4.213-1.867-4.213-4.162s1.89-4.162 4.213-4.162c1.007 0 1.975.356 2.728 1.004l1.845-2.092A7.007 7.007 0 0 0 7.021.999C3.15 1 0 4.112 0 7.937c0 3.825 3.15 6.937 7.02 6.937 3.872 0 7.022-3.112 7.022-6.937V6.55H7.02z"/></svg></svg></svg>