<svg width="14" height="12" xmlns="http://www.w3.org/2000/svg" xmlns:xlink="http://www.w3.org/1999/xlink" xmlns:svgjs="http://svgjs.com/svgjs" viewBox="0 0.314 14 11.372" fill="#fff"><svg xmlns="http://www.w3.org/2000/svg" width="14" height="12" viewBox="0 0 14 11.372"><path paint-order="stroke fill markers" fill-rule="evenodd" d="M14 1.346a5.738 5.738 0 0 1-1.65.452A2.883 2.883 0 0 0 13.614.21a5.789 5.789 0 0 1-1.825.697 2.872 2.872 0 0 0-4.894 2.619A8.155 8.155 0 0 1 .975.525a2.87 2.87 0 0 0 .889 3.833 2.865 2.865 0 0 1-1.3-.36v.036c0 1.39.99 2.552 2.303 2.816-.24.065-.494.1-.757.1-.185 0-.365-.018-.54-.053a2.873 2.873 0 0 0 2.682 1.995 5.76 5.76 0 0 1-3.567 1.227c-.232 0-.46-.014-.685-.04a8.115 8.115 0 0 0 4.402 1.293c5.283 0 8.171-4.376 8.171-8.171l-.01-.372A5.746 5.746 0 0 0 14 1.346z"/></svg></svg>