<svg width="16" height="13" xmlns="http://www.w3.org/2000/svg" xmlns:xlink="http://www.w3.org/1999/xlink" xmlns:svgjs="http://svgjs.com/svgjs" viewBox="0 0.87 16 11.26" fill="#fff"><svg xmlns="http://www.w3.org/2000/svg" width="16" height="13" viewBox="0 0.999 16 11.26"><path paint-order="stroke fill markers" fill-rule="evenodd" d="M15.376 1.966c-.577-.686-1.644-.967-3.68-.967H4.303C2.221 1 1.136 1.298.561 2.03 0 2.742 0 3.792 0 5.245v2.77c0 2.815.665 4.245 4.303 4.245h7.393c1.766 0 2.745-.247 3.378-.854.649-.62.926-1.635.926-3.391v-2.77c0-1.533-.043-2.59-.624-3.28zm-5.104 5.046L6.915 8.767a.519.519 0 0 1-.506-.016.517.517 0 0 1-.25-.442V4.812a.517.517 0 0 1 .755-.459l3.357 1.744a.516.516 0 0 1 .001.915z"/></svg></svg>